<svg width="826" height="1024" viewBox="0 0 826 1024" fill="none" xmlns="http://www.w3.org/2000/svg">
<g clip-path="url(#clip0)">
<path d="M827.624 3.76514L202.726 2.79204C202.726 2.79204 90.1767 82.9781 102.901 289.608C115.625 496.238 185.824 539.197 55.9375 788.456C55.9375 788.456 1.60242 876.375 3.34414 1037.07L826.013 1038.35L827.624 3.76514Z" fill="#C8E8E4"/>
<path d="M0.069222 1005.02C0.27417 873.411 40.2039 795.485 40.6638 794.653C121.288 638.835 106.107 543.214 85.0659 410.903C79.4867 375.812 73.7129 339.488 68.8859 298.073C45.268 95.6578 115.039 -3.82483 115.761 -4.82229L117.22 -2.35686C116.52 -1.39266 47.6461 97.0262 71.0269 297.443C75.854 338.792 81.6061 375.016 87.1854 410.075C108.356 543.318 123.645 639.571 42.3639 796.687C41.8602 797.651 -6.54628 892.207 3.66911 1049.17L1.50672 1049.5C0.482551 1034.08 0.0470892 1019.24 0.069222 1005.02Z" fill="#C8E8E4"/>
</g>
<defs>
<clipPath id="clip0">
<rect width="1054.53" height="824.359" fill="white" transform="translate(826 -3.71631) rotate(90.0892)"/>
</clipPath>
</defs>
</svg>
